<svg width="1530" height="368" viewBox="0 0 1530 368" fill="none" xmlns="http://www.w3.org/2000/svg">
<path d="M110.088 0.311992L37.752 293.88H13.992L86.064 0.311992H110.088ZM136.907 176.4C136.907 161.44 139.899 148.416 145.883 137.328C151.867 126.064 160.139 117.352 170.699 111.192C181.435 105.032 193.667 101.952 207.395 101.952C225.171 101.952 239.779 106.264 251.219 114.888C262.835 123.512 270.491 135.48 274.187 150.792H248.315C245.851 141.992 241.011 135.04 233.795 129.936C226.755 124.832 217.955 122.28 207.395 122.28C193.667 122.28 182.579 127.032 174.131 136.536C165.683 145.864 161.459 159.152 161.459 176.4C161.459 193.824 165.683 207.288 174.131 216.792C182.579 226.296 193.667 231.048 207.395 231.048C217.955 231.048 226.755 228.584 233.795 223.656C240.835 218.728 245.675 211.688 248.315 202.536H274.187C270.315 217.32 262.571 229.2 250.955 238.176C239.339 246.976 224.819 251.376 207.395 251.376C193.667 251.376 181.435 248.296 170.699 242.136C160.139 235.976 151.867 227.264 145.883 216C139.899 204.736 136.907 191.536 136.907 176.4ZM330.266 53.64V249H306.242V53.64H330.266ZM668.382 104.328V249H644.358V227.616C639.782 235.008 633.358 240.816 625.086 245.04C616.99 249.088 608.014 251.112 598.158 251.112C586.894 251.112 576.774 248.824 567.798 244.248C558.822 239.496 551.694 232.456 546.414 223.128C541.31 213.8 538.758 202.448 538.758 189.072V104.328H562.518V185.904C562.518 200.16 566.126 211.16 573.342 218.904C580.558 226.472 590.414 230.256 602.91 230.256C615.758 230.256 625.878 226.296 633.27 218.376C640.662 210.456 644.358 198.928 644.358 183.792V104.328H668.382ZM699.969 176.136C699.969 161.352 702.961 148.416 708.945 137.328C714.929 126.064 723.113 117.352 733.497 111.192C744.057 105.032 755.849 101.952 768.873 101.952C780.137 101.952 790.609 104.592 800.289 109.872C809.969 114.976 817.361 121.752 822.465 130.2V53.64H846.753V249H822.465V221.808C817.713 230.432 810.673 237.56 801.345 243.192C792.017 248.648 781.105 251.376 768.609 251.376C755.761 251.376 744.057 248.208 733.497 241.872C723.113 235.536 714.929 226.648 708.945 215.208C702.961 203.768 699.969 190.744 699.969 176.136ZM822.465 176.4C822.465 165.488 820.265 155.984 815.865 147.888C811.465 139.792 805.481 133.632 797.913 129.408C790.521 125.008 782.337 122.808 773.361 122.808C764.385 122.808 756.201 124.92 748.809 129.144C741.417 133.368 735.521 139.528 731.121 147.624C726.721 155.72 724.521 165.224 724.521 176.136C724.521 187.224 726.721 196.904 731.121 205.176C735.521 213.272 741.417 219.52 748.809 223.92C756.201 228.144 764.385 230.256 773.361 230.256C782.337 230.256 790.521 228.144 797.913 223.92C805.481 219.52 811.465 213.272 815.865 205.176C820.265 196.904 822.465 187.312 822.465 176.4ZM1089.78 130.992C1094.53 122.72 1101.57 115.856 1110.9 110.4C1120.41 104.768 1131.41 101.952 1143.9 101.952C1156.75 101.952 1168.37 105.032 1178.75 111.192C1189.31 117.352 1197.58 126.064 1203.57 137.328C1209.55 148.416 1212.54 161.352 1212.54 176.136C1212.54 190.744 1209.55 203.768 1203.57 215.208C1197.58 226.648 1189.31 235.536 1178.75 241.872C1168.37 248.208 1156.75 251.376 1143.9 251.376C1131.58 251.376 1120.67 248.648 1111.17 243.192C1101.84 237.56 1094.71 230.608 1089.78 222.336V317.64H1065.76V104.328H1089.78V130.992ZM1187.99 176.136C1187.99 165.224 1185.79 155.72 1181.39 147.624C1176.99 139.528 1171.01 133.368 1163.44 129.144C1156.05 124.92 1147.86 122.808 1138.89 122.808C1130.09 122.808 1121.9 125.008 1114.33 129.408C1106.94 133.632 1100.96 139.88 1096.38 148.152C1091.98 156.248 1089.78 165.664 1089.78 176.4C1089.78 187.312 1091.98 196.904 1096.38 205.176C1100.96 213.272 1106.94 219.52 1114.33 223.92C1121.9 228.144 1130.09 230.256 1138.89 230.256C1147.86 230.256 1156.05 228.144 1163.44 223.92C1171.01 219.52 1176.99 213.272 1181.39 205.176C1185.79 196.904 1187.99 187.224 1187.99 176.136ZM1268.19 130.992C1272.94 122.72 1279.98 115.856 1289.31 110.4C1298.81 104.768 1309.81 101.952 1322.31 101.952C1335.16 101.952 1346.77 105.032 1357.16 111.192C1367.72 117.352 1375.99 126.064 1381.97 137.328C1387.96 148.416 1390.95 161.352 1390.95 176.136C1390.95 190.744 1387.96 203.768 1381.97 215.208C1375.99 226.648 1367.72 235.536 1357.16 241.872C1346.77 248.208 1335.16 251.376 1322.31 251.376C1309.99 251.376 1299.08 248.648 1289.57 243.192C1280.24 237.56 1273.12 230.608 1268.19 222.336V317.64H1244.16V104.328H1268.19V130.992ZM1366.4 176.136C1366.4 165.224 1364.2 155.72 1359.8 147.624C1355.4 139.528 1349.41 133.368 1341.84 129.144C1334.45 124.92 1326.27 122.808 1317.29 122.808C1308.49 122.808 1300.31 125.008 1292.74 129.408C1285.35 133.632 1279.36 139.88 1274.79 148.152C1270.39 156.248 1268.19 165.664 1268.19 176.4C1268.19 187.312 1270.39 196.904 1274.79 205.176C1279.36 213.272 1285.35 219.52 1292.74 223.92C1300.31 228.144 1308.49 230.256 1317.29 230.256C1326.27 230.256 1334.45 228.144 1341.84 223.92C1349.41 219.52 1355.4 213.272 1359.8 205.176C1364.2 196.904 1366.4 187.224 1366.4 176.136Z" fill="black"/>
<path d="M878.375 176.136C878.375 161.352 881.367 148.416 887.351 137.328C893.335 126.064 901.519 117.352 911.903 111.192C922.463 105.032 934.167 101.952 947.015 101.952C959.687 101.952 970.687 104.68 980.015 110.136C989.343 115.592 996.295 122.456 1000.87 130.728V104.328H1025.16V249H1000.87V222.072C996.119 230.52 988.991 237.56 979.487 243.192C970.159 248.648 959.247 251.376 946.751 251.376C933.903 251.376 922.287 248.208 911.903 241.872C901.519 235.536 893.335 226.648 887.351 215.208C881.367 203.768 878.375 190.744 878.375 176.136ZM1000.87 176.4C1000.87 165.488 998.671 155.984 994.271 147.888C989.871 139.792 983.887 133.632 976.319 129.408C968.927 125.008 960.743 122.808 951.767 122.808C942.791 122.808 934.607 124.92 927.215 129.144C919.823 133.368 913.927 139.528 909.527 147.624C905.127 155.72 902.927 165.224 902.927 176.136C902.927 187.224 905.127 196.904 909.527 205.176C913.927 213.272 919.823 219.52 927.215 223.92C934.607 228.144 942.791 230.256 951.767 230.256C960.743 230.256 968.927 228.144 976.319 223.92C983.887 219.52 989.871 213.272 994.271 205.176C998.671 196.904 1000.87 187.312 1000.87 176.4Z" fill="#00BCD4"/>
<path d="M1434.98 80.832C1430.4 80.832 1426.53 79.248 1423.36 76.08C1420.19 72.912 1418.61 69.04 1418.61 64.464C1418.61 59.888 1420.19 56.016 1423.36 52.848C1426.53 49.68 1430.4 48.096 1434.98 48.096C1439.38 48.096 1443.07 49.68 1446.07 52.848C1449.23 56.016 1450.82 59.888 1450.82 64.464C1450.82 69.04 1449.23 72.912 1446.07 76.08C1443.07 79.248 1439.38 80.832 1434.98 80.832ZM1446.59 104.328V249H1422.57V104.328H1446.59Z" fill="#FD8E17"/>
<path d="M443.5 79L357.5 116L443.5 170L531 122.5L443.5 79Z" fill="#00BCD4"/>
<path d="M357 115L444.5 169V276.5L357 197V115Z" fill="black"/>
<path d="M444 278V168.5L531 122V206.951L444 278Z" fill="#FD8E17"/>
<path d="M338.373 253.493C332.475 250.969 330.741 247.446 330.612 246H306C306.931 258.304 309.302 264.302 312 267C320.5 275.5 327.127 279 340 278C351.143 277.134 355.448 270.845 357 269.268V249.155C353.249 251.653 344.272 256.017 338.373 253.493Z" fill="black"/>
</svg>
